<?xml version="1.0" encoding="utf-8"?>
<!-- Generator: Adobe Illustrator 28.3.0, SVG Export Plug-In . SVG Version: 6.00 Build 0)  -->
<svg version="1.1" id="Calque_1" xmlns="http://www.w3.org/2000/svg" xmlns:xlink="http://www.w3.org/1999/xlink" x="0px" y="0px"
	 viewBox="0 0 1000 540.4" style="enable-background:new 0 0 1000 540.4;" xml:space="preserve">
<style type="text/css">
	.st0{display:none;fill:#848484;}
	.st1{fill:url(#SVGID_1_);}
	.st2{fill:url(#SVGID_00000159440049948949901850000003209446795133758596_);}
	.st3{fill:url(#SVGID_00000001639207975843208890000003772553853721894301_);}
	.st4{fill:url(#SVGID_00000017513696689939323110000018347956488237119655_);}
	.st5{fill:url(#SVGID_00000104695887730468852510000016531660766181818269_);}
	.st6{fill:url(#SVGID_00000067919444045126776890000008728414519139837882_);}
	.st7{fill:url(#SVGID_00000173842160938775577540000012425100625736403841_);}
	.st8{fill:url(#SVGID_00000149365082308826500880000004645689334190443690_);}
	.st9{fill:url(#SVGID_00000034047478113161590600000008056033627339689147_);}
	.st10{fill:url(#SVGID_00000054260651397909844000000017922253723800987815_);}
</style>
<rect y="-204.2" class="st0" width="1000" height="1000"/>
<g>
	
		<linearGradient id="SVGID_1_" gradientUnits="userSpaceOnUse" x1="-19.9756" y1="338.5812" x2="991.5084" y2="343.2263" gradientTransform="matrix(1 0 0 -1 0 593.5484)">
		<stop  offset="0" style="stop-color:#0871B8"/>
		<stop  offset="1" style="stop-color:#66B32E"/>
	</linearGradient>
	<path class="st1" d="M531.8,420l-1.9-1.6c0,0-0.2-0.2-0.3-0.1s-0.8,0.8-0.8,0.8s-0.2-0.2-0.3-0.1s-0.8,0.5-0.8,0.5l-0.3-1.6
		c0,0-0.1-0.2-0.3-0.2s-1,0-1,0l-0.4,0.4l-0.5,0.1l-0.7,0.7c0,0-1.4-0.5-1.6-0.7s-1.5-1.2-1.7-1.2s-0.7-0.1-0.8-0.2s-2-1.8-2-1.8
		s-0.6-0.4-0.9-0.4s-4.3,0.4-4.3,0.4s-1.1-1.1-1.4-1.5c-0.3-0.4-0.9-1.4-1.1-1.7c-0.2-0.2-3.1-1.8-3.1-1.8s-0.1-1.4-0.2-1.7
		s-0.6-1.2-1.2-1.6s-2-0.7-3-0.7c-1.1,0-2.7-0.1-3.3-0.2c-0.6,0-1.5,0-1.9-0.2c-0.3-0.2-0.9-0.2-1.2-0.5c-0.3-0.2-0.7-0.7-1-0.8
		s-0.9-0.1-0.9-0.1l-0.3-2.7c0,0,0-0.3,0.1-0.6s0-0.5-0.1-0.7c-0.1-0.2-0.5-0.5-0.2-0.7c0.2-0.2,1.2-0.7,1.2-0.7s0.2-0.2,0.2-0.3
		s-0.7-1.5-0.7-1.7c0-0.2-0.4-1.4-0.4-1.8s-0.1-0.6-0.4-0.8c-0.3-0.2-2.5-0.9-2.8-0.9s-0.1-0.7-0.1-0.7s-0.7-0.9-0.8-1
		s-0.3-0.2-0.1-0.4c0.1-0.2,0.4-1,0.2-1.1c-0.1-0.1-0.2-0.3-0.4-0.2c-0.2,0.1-0.9,0.6-0.9,0.6s-0.2,0.2-0.4-0.1
		c-0.1-0.3-0.1-0.8-0.3-0.9c-0.1-0.1,0.3-0.4,0.3-0.6c0-0.2,0.1-0.3-0.2-0.5s-1.3-1-1.5-1.4s-1.9-0.9-2-1.1s-0.1-0.7,0-1.1
		s0.7-1.6,0.7-1.7s0.1-0.4-0.1-0.5c-0.2,0-8.2-1.6-8.2-1.6l1.3-1.2c0,0,0.4-0.4,0.5-0.8s0.1-1,0.5-1.3s1-0.9,1-0.9s0.5-0.4,0.8-0.9
		s2.6-2.6,2.6-2.6s0.5-0.5,0.7-0.9s0.3-0.8,0.2-1.1s-0.6-0.6-0.6-0.9c0-0.3,0-0.9,0.1-1.2c0.2-0.3,0.5-0.7,0.5-1s-0.4-0.8-0.6-0.9
		c-0.2-0.1-0.1-0.5-0.2-0.8c-0.1-0.2-2-2.2-2.4-2.4c-0.3-0.2-1-0.5-1.2-0.7c-0.2-0.2-1.9-1.7-2.1-2s-1.5-1.1-1.8-1.5
		s-1.1-1.5-1.3-1.8c-0.2-0.3-0.6-0.9-0.9-1.1c-0.4-0.2-1.5-1-1.8-1.2s-1.4-1.1-1.6-1.3c-0.2-0.2-0.7-0.8-0.7-1.1s0-3.2,0-3.2
		s0.1-0.5-0.1-0.8c-0.3-0.3-1.6-1.5-1.6-1.5s-0.4-0.4-1-0.6s-1.8-0.5-1.8-0.5s-0.8-0.1-0.2-0.3c0.5-0.2,1.2-0.6,1.8-0.7
		s1.5-0.2,2.1-0.4c0.6-0.3,2.2-1.3,2.7-1.8s1.7-1.9,1.7-1.9s1,0,1.9-0.2c0.9-0.2,2.5-0.8,2.8-1.3c0.2-0.4,0.5-0.8,0.5-1.5
		c0-0.6,0-2.3,0-2.3l1-1c0,0,0.5-1.1,0.5-1.7c0-0.6,0.1-1.2,0.6-1.6s2.5-1.6,2.5-1.6s0.4,0,0.4-0.5c0-0.5,0-0.8-0.3-1.2
		c-0.3-0.4-0.3-2-0.1-2.2s2.1-2,2.3-2.1s1.9-0.9,2.1-1.1s1-0.9,1.1-1.6c0-0.7-0.1-2.4-0.3-2.9s-0.8-2.1-0.9-2.4
		c-0.1-0.4-0.5-1-0.5-1.3s0-0.5,0.2-0.5c0.2-0.1,0.7-0.1,1-0.2c0,0,1.7-0.7,2.5-1.2s2-1.5,2.2-2.2c0.2-0.6,0.1-1.7,0.3-2.2
		c0.1-0.6,0.4-2.2,0.4-2.7c0-0.5-0.1-0.9-0.5-1.2s-1-0.6-1-0.8s0.5-1,0.5-1.4c0-0.5,0.4-3.9,0.4-4.3s0.1-0.7,0-0.9s-1-1.2-1.4-1.4
		s-2.4-1.1-2.7-1.2s-1.3-0.2-1.6-0.3c-0.2-0.1-0.4-0.1-0.4-0.9s0-3.5,0-3.5s0.1-1-0.4-1.7s-0.9-1.2-1.1-1.3c-0.2-0.1-1.1-0.2-1.5,0
		s-1.1,0.3-1.4,0.1c-0.3-0.2-2.2-2.7-2.4-2.9s-1.1-1.1-1.7-1.4c-0.6-0.2-1.4-0.6-1.9-0.6s-3.1,0.4-3.6,0.4s-2.2-0.1-2.7-0.4
		s-1.5-1.2-1.9-1.6s-2.5-1.4-2.9-1.8s-1.6-2-1.7-2.4c-0.1-0.4-0.2-0.7,0-1.1s0.5-1.1,0.5-1.6s-0.5-2.6-0.7-2.9
		c-0.1-0.3-0.4-1.1-0.3-1.5c0-0.4,0.1-1.5,0.7-2.4s1.1-2.2,1.2-2.5c0.1-0.3,0.1-1.2,0.3-1.4s0.6-1.5,1-1.6c0.5-0.1,1.6-0.1,2.1-0.2
		s1.2-0.4,1.3-0.7s-0.1-1.5-0.3-2c-0.1-0.5-0.7-3.6-0.8-4.1c-0.1-0.4-0.2-1.2-0.1-1.5c0-0.4,0.1-1,0.2-1.3c0,0,0.4-0.6,0.5-0.9
		c0.1-0.3,0.2-0.5-0.2-0.9s-0.8-0.1-1.3-0.5s-0.9-0.6-0.9-1.1s0.3-2.4,0.5-2.7c0.2-0.4,1.2-1.2,1.6-1.6s1.7-3,1.9-3.8
		c0.2-0.8,0.8-2.3,0.5-3.2s-1.3-3-1.6-3.5c-0.3-0.5-0.9-1.3-0.8-2.2s0.2-1.5,0.5-1.9s0.5-1.9,0.6-2.5s0.5-1.3,0.1-2
		c-0.4-0.7-1-0.9-1.4-1.1s-1-0.7-1.2-1s-1.3-1.8-2.1-2.2c-0.8-0.4-1.2-0.9-1.5-0.9s-0.7-0.2-1.3,0.3s-1.9,1.2-3,1.6
		s-0.8,0.6-1.5,0.4c-0.8-0.2-2.1-0.6-2.3-0.7c-0.2,0-3.3-1.1-3.5-1.3s-2.2-0.1-2.7-0.3c-0.5-0.2-0.8-0.4-0.7-1.1
		c0.1-0.7,0.4-2.3,0.4-2.9c0.1-0.5,0.3-2,0-2.5c0,0-0.7-1.3-2-2.2s-1.7-0.9-2.2-1.6c-0.6-0.7-0.8-1.5-1.4-2s-1-0.9-1.8-1
		c-0.8-0.1-1.4-0.3-2-0.3s-1.4,0-1.4,0l-0.1-0.3l0.5-0.4c0,0,1-0.1,1.3-0.2s0.8-0.5,0.9-0.8c0.1-0.2,0.3-0.2,0.3-0.2
		s1.8,0.3,2.1,0.4s0.5,0.1,0.6,0c0.1-0.1,0.2-0.4,0.3-0.5c0-0.1,0.5-1.6,0.5-1.6l-0.2-0.3l-0.3-0.1c0,0,0.2-0.9,0.2-1.2
		s0.6-2.5,0.6-2.8s0.1-0.5-0.1-1s-0.7-1.9-0.7-1.9s-0.1-0.2-0.2-0.1s-0.5,0.4-0.5,0.3s-1.6-3.1-1.6-3.1s-0.2-0.4-0.2-0.6
		s0.1-1,0.2-1c0.1-0.1,0.2-0.2,0.3-0.4s0-0.4-0.3-0.4c-0.2-0.1-1.4-0.5-1.4-0.5s0.4-0.9,0.4-1.1c0-0.2-0.2-0.4-0.3-0.5
		s-2.9-2.2-2.9-2.2s-0.2-0.2-0.2-0.1c-0.1,0.1-0.5,1.2-0.5,1.2l-2.1-1.7c0,0-0.1-0.1-0.2-0.1s-1.2,1.3-1.2,1.3s-0.1,0.2-0.4,0
		s-2.9-2.4-2.9-2.4s-0.4-0.4-0.7-0.1s-3,2.9-3,2.9s-0.6,0.5-1,1.1c-0.3,0.6-1.2,2.2-1.2,2.2s-1.1,1.3-1.7,1.8s-1.8,1.9-1.8,1.9
		s-0.6,0.5-0.6,0.6c0,0.1-0.3,0.7-0.5,0.9s-1.3,0.8-1.4,0.9c-0.1,0.2-3.1,4-3.1,4l-1.5-1.5c0,0-0.2-0.2-0.4-0.1s-0.3,0.4-0.4,0.3
		c-0.1-0.1-1.2-1.6-1.3-1.7s-0.5-0.1-0.7-0.5c-0.2-0.3-0.5-0.5-0.5-1c0-0.5,0-1.7-0.1-2.2s-0.8-3.4-0.9-3.7c-0.1-0.3-0.2-0.9-0.3-1
		c-0.1,0-0.2-0.1-0.2-0.1s-0.1,0.1-0.2-0.1c0,0-0.1-2-0.3-2.2c-0.1-0.2-0.8-1-0.9-1.1c-0.1,0-0.1-0.1-0.3,0s-0.9,1.1-0.9,1.1
		s-0.3,0-0.4-0.1s-0.1-0.3-0.1-0.4c0-0.1,0-0.1-0.1-0.3s-2.6-2.3-2.8-2.4c-0.1-0.1-0.5-0.3-0.5-0.6s-0.2-1.8-0.2-2s-0.1-1.4-0.1-1.4
		c0-0.1,0.2-0.6,0.3-0.8s0.1-0.5,0.1-0.7s-0.3-0.4-0.6-0.5s-1.3-0.9-1.5-1c-0.2-0.1-1-0.7-1.1-0.9c-0.2-0.2-2-1.8-2.1-1.9
		c-0.1-0.1-0.2-0.3-0.4-0.2s-0.3,0.5-0.5,0.5s-0.9-0.3-1-0.4s-1.5-0.7-1.6-0.8s-0.3-0.1-0.5,0c-0.1,0.1-0.9,2.6-1,2.8
		s-0.1,0.3-0.4,0.4s-0.8,0.1-0.9,0.3c-0.2,0.1-0.7,0.2-0.9,0.3s-0.7,1.1-1.1,1.3c-0.4,0.1-1.1,0.5-1.4,0.5c-0.3,0-0.8-0.2-1.1-0.2
		s-0.7,0.4-1.1,0.5c-0.4,0.1-1.5,0.4-1.7,0.5c-0.3,0.1-2.9,1-3.2,1s-0.6,0.1-0.8,0c-0.2-0.1-0.8-1.1-0.8-1.3c0-0.1,0-0.5,0.1-0.8
		c0.1-0.2,0.8-1.5,0.7-2c0-0.4-1.1-0.9-1.4-1.1s-0.5-1.1-0.8-1.2c-0.3-0.1-2-0.5-2.2-0.5s-0.7-0.2-0.9-0.1c-0.2,0.1-1.2,1-1.4,1.2
		c-0.2,0.3-3.4,3.5-3.4,3.5s0.1-0.8,0-1.1s-0.2-1.1-0.4-1.5s-0.5-0.7-0.6-0.7s-0.7,0-1,0.4s-1.1,0.8-1.3,1c-0.2,0.2-1.6,0.9-1.9,0.9
		s-1.2-0.1-1.4-0.4c0,0,0.1-0.3-0.1-0.5s0-0.4-0.3-0.8c-0.3-0.4-0.7-1-0.8-1.4s-0.9-2.5-1.2-2.7s-2.7-2.2-2.9-2.5s-1.7-2-1.9-2.1
		s-1-0.6-1.3-0.6s-1.2,0.6-1.3,0.4s-0.3-1.7-0.3-2c0-0.3,0-0.9-0.3-1c-0.3-0.1-1.5,0-1.9,0.1s-1,0.1-1.3,0.5s-0.4,0.8-0.4,0.8
		s-0.5,0.2-0.6,0.5s0,0.9-0.3,1.1c-0.3,0.2-2.6,1-2.6,1s-0.6,0.4-0.8,0.5c-0.2,0.1-0.6-0.1-0.8-0.3c-0.1-0.2-0.5-0.5-0.8-0.6
		s-1.9,0.5-2.2,0.5c-0.2,0-0.7-0.8-1.2-0.7c-0.4,0-1.3-0.4-1.6-0.6s-0.9-0.1-0.9-0.4s0.3-1.3,0.4-1.3s0.6,0.3,0.8,0.2s0.6,0,0.6-0.3
		c0-0.3-0.1-2.6-0.1-2.6s0-0.4-0.2-0.5c-0.2,0-4.2,0.1-4.2,0.1s1.5-1.9,1.5-2.1s0-4.8,0-4.8l3.5-1.4l1.3,2.2c0,0,0.2,0.4,0.4,0.4
		s2-0.6,2.2-0.8c0.2-0.1,4.6-2.9,4.8-3.1c0,0,0.3-0.2,0.3-1s0-3.4,0-3.4s0.5,0,0.5-0.2c0-0.2,0-1,0-1s0.6,0,0.6-0.2
		c0-0.3,0.2-3,0.2-3s0.3-2.2,0.2-2.4c-0.1-0.1-0.2-0.4-0.4-0.2c-0.2,0.1-1.2,0.8-1.2,0.8s-0.5-2.3-0.5-2.6c0-0.3,0.1-0.8,0-0.9
		c-0.1-0.1-0.8-0.2-0.8-0.3s0-0.8-0.1-0.8s-1.3-0.2-1.3-0.3c0-0.1-0.2-3.4-0.2-3.4s0-0.2-0.1-0.3s-3.4-0.1-3.4-0.1s-0.3,0-0.3,0.1
		s0.1,0.5,0,0.4s-5.9-1.8-5.9-1.8l2.1-3.5c0,0,0.2-0.4-0.3-0.4s-2.1,0-2.1,0l0.7-0.7c0,0,0.2-0.2,0-0.4s-1-0.9-1-0.9l2.6-2.9
		l2.1,1.2c0,0,2,0.6,2.9,0.6c0.8,0,1.7-0.2,2-0.5s3.5-2.8,3.5-2.8s1-2.4,1-2.6c0.1-0.2,0.4-0.7,0.8-0.8c0.4,0,1.6-0.1,1.9-0.2
		c0.3-0.1,2.1-1.1,2.1-1.1s0.4-0.1,0.8,0s3.1,1.2,3.1,1.2s2.2,0.9,4.1,0.3c1.9-0.6,3.7-1.6,4.9-3c1.1-1.3,2.6-2.8,2.9-3.1
		c0.2-0.3,0.9-1.5,1.4-1.8s2.5-1.5,2.5-1.5l0.4,0.1l0.6-0.8c0,0,0.3,0.3,0.5,0.2c0.2-0.1,1.4-0.7,1.8-0.7s2.5-0.1,3,0
		s2.8,0.9,3.3,0.9s2.8,0.2,3.5,0.2c0.7-0.1,2-0.5,2.3-0.5s1.3,0.2,1.3,0.2s-0.1,0.5,0.1,0.7s0.7,0.1,0.8,0c0.1-0.1,0.1-0.4,0.1-0.4
		l1.9,1.4c0,0,0.3,0.4,0.6,0.3s0.8-0.3,1-0.3s1.8,0.1,2.1,0.2s2,1.2,2,1.2s0.3,0.2,0.6,0.2s3.5,0.1,3.5,0.1l1.7,0c0,0,0.7,0,1.2-0.4
		s0.8-0.6,0.8-0.8s0-1.1,0-1.1l1-0.8v-1.6c0,0-0.3-0.8-0.4-1s-0.4-0.5-0.3-0.8s1-1.7,1-1.7v-0.9h0.7c0,0,0.4-0.5,0.5-0.6
		s0.4-0.1,0.6-0.3s4-3.5,4.4-3.7s1.9-1.5,2.3-1.6c0.4-0.2,0.8-0.4,1.1-0.4s0.3,0.1,0.7,0.2c0.3,0.2,0.4,0.3,0.7,0.3s0.8-0.5,1-0.5
		s8.1,0,8.1,0s3,0.8,3.5,0.9c0.6,0.1,2.4,0.5,3.1,0.7c0.7,0.1,2.9,0.2,3,0.3s0.1,0.7,0.2,0.8s0.6,0.1,0.8,0s0-0.5,0.2-0.6
		c0.2-0.1,4.1-2.7,4.1-2.7s1.6-0.4,2-0.6s4.2-2.5,4.2-2.5s0.2-0.2,0.8,0c0.6,0.2,1.6,0.6,2,0.6c0.4,0.1,2.6,0.1,2.6,0.1l-0.7,2.4
		l1,1l-0.1,0.9l-0.7-0.1l-0.4-0.5l-0.5,0.4c0,0-0.2-0.9-0.4-0.9s-1.9,0.5-1.9,0.8s0.9,1.9,0.9,1.9l-0.5,0.4l-0.1,1.9l-2,2.2
		c0,0-0.3,0.2-0.3,0.3s0.1,0.6,0.1,0.6l-0.5,0.6v0.8c0,0-0.7-0.4-0.9-0.3s-0.8,1.3-0.8,1.3l-1,2.4l-1,2.5c0,0,2-0.2,2.4-0.1
		c0.5,0,3.6,0.8,3.8,0.7s1.5-1,1.5-1s1,2,0.8,2.4c-0.3,0.4-0.4,0.7-0.4,0.7l2.1,2.2c0,0,0.9-0.6,1.4-0.6c0.5,0,1-0.1,1.2-0.1
		c0,0,0.3,0.3,0.2,0.8c0,0.5-0.2,1.5-0.1,1.7c0.1,0.2,0.2,0.7,0.6,0.8c0.4,0.1,0.5,0.2,0.6,0.5c0.1,0.3,1.3,1.2,2.6,1.4
		c1.3,0.2,2.6,0.4,3.6,0.4s4.2-0.1,5-0.4c0.8-0.3,2.8-1.2,2.8-1.7s0.1-2,0-2.2c-0.1-0.2-0.4-0.8-0.4-1.1s0.1-3.2,0.1-3.2l-1.5,0
		l-0.1,0.8l-0.6,0l-0.2-1l-1.7,0.1l-0.7-0.5l0.3-0.4l1.3,0.1v-2.4c0,0-1-0.2-1.3-0.4c-0.4-0.2-0.5-0.4-0.7-0.4
		c-0.2,0-0.4,0.5-0.4,0.5l-1-0.7l0.2-0.7l0.8,0.5c0,0,0.6-0.9,0.6-1.1c0-0.2-0.7-0.4-0.7-0.4s-0.1-0.7,0-0.8s0.6-0.1,0.6-0.1
		c0,0.1-0.1,0.6,0,0.7s0.6,0.1,0.6,0.1s0.2-1,0.1-1.2s-1.5-3.8-1.4-4.2c0-0.5,0.9-2.4,0.8-2.7c-0.1-0.2-0.3-0.8-0.3-1.1s0-1.3,0-1.3
		l-0.4,0c0,0-1,1.1-1.6,1.3s-1.2,0.5-1.2,0.4c-0.1-0.1-0.1-1.9,0-2s0.2-0.2,0.2-0.4s0-0.6,0.1-0.7c0.1,0,1,0,1.2,0s1.1,0.5,1.5,0.5
		s1.3,0.3,1.7,0.2c0.5,0,1.4-0.3,1.7-0.6s1.5-1.1,1.5-1.5c0-0.5-0.2-1.5-0.1-1.7s1.8-1.9,1.8-1.9s2.4-2.9,2.7-3.2
		c0.2-0.3,1-1.4,1.1-1.4s1.5,0.8,1.7,1c0.2,0.2,0.7,1.1,1,1.2s0.9,0,1.1-0.2s0.7,0.3,0.7,0.5s-0.3,0.5-0.2,0.6s1.2,1.3,1.4,1.7
		s2.4,2.5,2.3,2.6c-0.1,0.2-0.9,2-1.2,2.3s-1.8,0.7-2,0.9s-0.5,0.3-0.6,0.6c-0.1,0.2-0.1,0.6,0.1,0.8c0.2,0.2,2.4,1.4,2.8,1.5
		c0.4,0.2,3.5,1.7,3.5,1.7s1,0.5,1,0.3c0.1-0.3,0.6-3,0.8-3.1c0.2-0.1,0.8-0.6,1.1-0.6c0.3,0,4,1.1,4.1,1.3c0.1,0.2-1.4,3.7-1.6,4.4
		s-0.6,1.7-0.9,2.1s-1.2,1.6-0.9,2s2.2,1.9,2.8,1.7c0.6-0.2,1.7-1,1.7-1l-0.4,3.4l-0.8,1l0.5,0.8l-0.7,0.4l0,0.4l-1,0.8l-1.2-1.1
		l0.7-0.8c0,0-0.2-0.4-0.5-0.4c-0.3,0-1.7-0.4-2-0.7s-1.3-0.9-1.5-0.9s-1,0.4-1,0.8c0,0.4,0,1.1-0.2,1.1s-1.4-0.4-1.5-0.3
		c-0.1,0.1,0.2,0.7,0,0.9c-0.2,0.2-2-1.1-2-1.1s-2.2,2.1-2.4,2.4s-2.9,2.5-3.4,2.9c-0.5,0.3-4.4,3.1-5.2,3.8s-2.9,1.3-3.3,1.8
		s-0.9,2-0.9,2.4s-0.3,3.4-0.5,4c-0.1,0.6-0.8,2.8-0.9,3.1s-0.2,1.2-0.1,1.6c0,0.4,0.1,1.2,0.4,1.7s0.8,2,1.2,2.5
		c0.4,0.5,1.2,2.8,1.3,3.5s0.2,2.8,0.3,3.5s0.7,2.3,2.1,2.9c1.5,0.6,1.3,0.7,2.3,0.9s2.1,0,2.4,0.2c0.4,0.1,1.4,1.4,2.6,1.4
		s5.5-0.9,6.3-1.1s2.5,1.8,3.1,2.6c0.6,0.8,1.5,2.3,2.3,2.4c0.8,0,3.9-1.5,4.7-1.7c0,0,2.4-0.4,2.8-0.5c0.4-0.1,0.9-0.4,1.4-0.5
		s1.1,0,1.6-0.1c0.5-0.1,0.5-0.3,1.1,0s3,1.7,3.3,2c0.3,0.2,0.5,1,0.7,1.2s0.7,0,0.7,0s1.7,1.2,1.8,1.4s0,1.3,0.2,1.5
		c0.2,0.2,1.6,0.6,1.7,0.8s0,0.9,0.1,1s3.2,1.2,3.2,1.2s-0.6,1.4-0.5,1.5s1.7,0.6,1.8,0.8s0.4,0.4,0.4,0.5c0,0.1-0.6,0.4-0.4,0.6
		s1.4,0.8,1.9,0.7c0.5-0.1,0.9-0.9,1.1-0.9s1.9,0.6,2,0.7s-1,2.4-1,2.5s0.9,1,0.9,1.3c0,0.3-1.2,3.3-1.2,3.3s-0.1,0.4,0.1,0.4
		c0.2,0.1,3.3-1.4,3.6-1.3c0.3,0.1,0.4,2.1,0.2,2.5s-0.6,0.5-0.6,0.8s-0.5,1.1-0.7,1.4c-0.2,0.3,0,0.4,0.4,0.5s4.1,0.3,4.1,0.3
		s-0.4,1.8-0.3,2.1c0.1,0.3,1.4,0.1,1.7,0.1c0.3,0,4,0.9,4,0.9l-0.3,1c0,0-2.8,0-2.9,0.1c-0.1,0.1-0.3,3.3-0.2,3.4s0.4,0.7,0.4,1.2
		c0,0.5-0.2,1.2,0,1.3s0.6,0,0.7,0.1s0.3,1,0.3,1.2c0,0.2-0.8,0.8-0.8,1c0,0.2-0.1,1.1,0.1,1.1c0.2,0.1,0.5,0,0.5,0.1s0,0.9,0.2,0.9
		c0.1,0,1.2-0.2,1.3,0s-0.1,1.4,0,1.5c0.2,0.1,0.9-0.1,0.9,0.1c0,0.2,0.1,0.6,0,0.6s-0.6,0.1-0.6,0.2c0,0.1,0.1,1.2,0,1.4
		c-0.1,0.1-0.6-0.3-0.7-0.2c-0.2,0.1-0.8,1.9-0.9,2c-0.2,0-0.7-0.3-0.8-0.2s-1.2,2.6-1.2,2.6s-0.2,0.6-0.1,0.7s0.8,0.3,0.9,0.2
		s0.5-0.6,0.6-0.6s1.4,1.2,1.3,1.3s-2.8,2.6-3,2.7c-0.1,0.1-0.4,0.4-0.3,0.4s0.6,0.6,0.6,0.7s1.2,1.7,1,1.9s-1.6,1.1-2,1.5
		c-0.4,0.4-2,1.9-2.2,2.2s-0.5,1.2-0.6,1.4c-0.2,0.2-1.2,0.8-1.4,1.1s-2.1,3.3-2,3.5s0.4,1.1,0.7,1.2c0.2,0.1,0.5-0.3,0.7-0.2
		s1,2.5,1.1,2.8s0.7,1.8,0.8,1.9s0.8,0.5,0.9,0.6c0.1,0.2,0.2,1.2,0.1,1.3s-0.6-0.3-0.8-0.2c-0.2,0.1-1,1.4-1.2,1.4
		s-0.5,0.3-0.7,0.5s-2.2,1.7-2.4,1.9s-0.7,0.7-0.7,0.9c0,0.3,0.1,1,0.6,1.4c0.5,0.4,1.2,0.9,1.2,1.2c0,0.3-0.7,2.3-0.8,2.4
		c-0.1,0.1-0.5-0.2-0.6,0c-0.1,0.2-0.2,0.7-0.4,0.8c-0.1,0-0.6-0.2-0.7,0s-0.8,1.3-0.7,1.6c0,0.3,0.2,1.3,0.5,1.5s0.8,0.7,1,1
		c0.2,0.3,0.2,0.9,0.4,1.1s0.8,1,0.8,1.3c0,0.4-0.3,1.5-0.4,1.7c-0.1,0.2-0.1,2.1-0.1,2.2c0.1,0.1,0.7,0.1,0.7,0.4s0,0.7,0.2,0.8
		c0.2,0.1,1,0,1.1,0.1c0.2,0.1,0.5,0.4,0.3,0.6s-0.8,1.2-0.8,1.5s0.2,0.6,0.5,0.9c0.2,0.3,2.3,2.5,2.4,2.7s0.2,0.6,0,0.8
		c-0.1,0.2-0.5,1-0.7,1.2s-0.5,0.6-0.5,0.9s0.8,1.6,1.2,1.9c0.4,0.3,1.7,1,2.3,1c0.6,0,1.4-0.2,1.9-0.2s1.5,0.6,1.8,0.9
		c0.4,0.3,2.8,2,2.8,2s1.1,1,1.4,1.7s1,2.6,1,3s0,1,0.2,1.3c0.2,0.3,1.2,1.2,1.3,1.5c0.2,0.3,0.7,1.6,0.9,2c0.3,0.5,1.2,2.2,1.6,2.6
		c0.4,0.4,2.7,2.5,3,2.7s1.1,0.8,1.4,0.8s2.2,0.4,2.5,0.5c0.3,0.1,1.5,0.7,1.6,1s0,1.6,0.1,2s0.5,1,0.9,1.2c0.3,0.1,1.4,0.2,1.9,0.1
		c0,0,0.7-0.4,1.2-0.5c0.5-0.1,0.9,0,1.2-0.2s0.6-0.9,0.9-0.9c0.2,0,1.5,1.3,1.9,1.6s1.4,1.5,1.6,2s0.5,1.5,0.5,2.5
		c-0.1,1-0.3,2.6-0.8,3.5c-0.5,0.9-1.7,2.2-2,2.5s-0.6,0.8-1,0.8s-1.5-0.3-1.7,0c-0.2,0.3-0.8,0.8-0.8,1.8c0,1,0.7,1.9,1,2.1
		s-0.2,0.5-0.5,0.6c-0.2,0.1-1.2,0.7-1.2,1.2s0,0.8,0.6,1.4c0.6,0.6,0.7,0.8,0.6,0.9s-0.5,0.2-0.8,0s-1.2-0.8-1.6-1
		c-0.4-0.2-0.9-0.3-1.2-0.2s-1.3,0.7-1.5,1s-0.8,1.2-1.1,1.5c-0.2,0.2,0.1,0.6,0.3,0.8s0.7,0.4,0.6,0.7c-0.1,0.2-0.7,1-0.5,1.4
		c0.2,0.4,0.6,1.2,1.1,1.4s2.2,1,2.4,1.1c0.2,0,1-0.1,1,0.1c0,0.2-1.2,0.9-1.2,1.2c0,0.2,0.5,0.6,0.6,1.2c0.1,0.6,0.3,3.1,0.5,3.4
		s2.4,2.4,2.5,2.7c0.1,0.3,0.2,2.3,0.3,2.8s0.8,2.6,0.8,3.1c0.1,0.5,0.4,1.9,0.3,2.4s-0.4,1.3-0.2,1.6s1.8,1,2.7,1.1
		c0.9,0.2,1.9,0.4,1.9,0.6s0.2,1.5-0.2,2.2s-1.8,1.9-2.1,2.2c-0.3,0.3-2,2.6-2,2.9c0,0.3-0.1,2.1,0.2,2.5s2.1,2.3,2.3,2.7
		s1.8,2.5,1.8,2.9c0,0.4-0.3,2-0.8,2.3c-0.5,0.3-1.7,0.7-2,1s-0.9,1-1.6,1.2s-2.7,0.4-2.9,0.6s-0.7,0.5-1.2,0.6s-1.8,0.1-2.2,0
		c-0.3-0.1-1.5,0-1.8,0.1c0,0-1.8,0.2-2.4,0.5c-0.6,0.4-1.5,1.3-1.5,1.8c0,0.5,0.2,3.1,0.1,3.2c-0.1,0.2-0.2,0.1-0.4-0.1
		c-0.2-0.2-0.8-1-1.3-1.1s-2.2,0.4-2.8,0.4s-2.4-0.5-3.2-0.7c-0.8-0.2-2.1-0.5-2.6-0.3c-0.5,0.2-3.4,1.1-3.8,1.6s-0.8,1-0.8,1.7
		s0.3,1.3,0.1,1.7c-0.2,0.4-1.2,1.7-1.3,2.2s0.5,1.6,0.5,1.9s-0.1,1-0.4,1.2s-0.9,0.5-0.9,1c0,0.6,0,2.3,0.2,2.7
		c0.2,0.3,1.1,0.8,1.4,1s1.3,1.5,1.7,1.8s1.5,0.8,1.8,1.1s0.9,1.5,1.5,1.6c0.6,0.1,1.9-0.2,2.4-0.4s1.6-0.3,2-0.2s0.6,0.3,0.4,0.5
		c-0.2,0.2-1.6,1.7-2,1.8c-0.4,0.2-2,1.1-2.1,1.4s-0.1,0.8,0.6,1.1c0.7,0.3,1.3,0.2,1.6,0.4s1.1,0.9,1.5,1.1c0.3,0.2,1.8,1,2.1,1.2
		s1.5,0.9,1.7,1.3c0.2,0.3,0.9,1.8,1.1,2c0.3,0.3,0.6,0.7,1.2,0.7c0.6,0,3.2,0.1,3.6,0.4s0.7,1.3,1.2,1.7s2.7,1.8,2.8,2.3
		c0.1,0.5,0.3,1.6,0,2.1c-0.3,0.5-1.6,1.9-1.6,2.2c0,0.3,0.2,1.2,0.3,1.5c0.2,0.3,0.6,0.9,0.5,1.1s-0.7,0.7-0.7,0.9
		c0,0.2,0.1,2.4-0.2,2.2c-0.2-0.2-2.6-3.2-3-3.3c-0.4-0.1-3.5-0.2-3.8-0.2c-0.3,0-2.6-0.3-2.7-0.2s-0.6,0.3-1-0.1s-1.6-1.7-1.8-1.8
		s-0.6-0.1-0.5,0.2c0,0.2-0.1,2.4-0.4,2.9s-0.7,1.4-0.6,1.8s0.5,1.7,0.5,2.2c0,0.5-0.2,1.2,0,1.6c0,0,0.2,1.3,0.3,1.4
		c0.2,0.1,2,0.6,2,0.8s0.2,1-0.1,1.3c-0.3,0.2-1.1,0.4-1.1,0.8s0.5,1.5,0.5,2.1c0,0.6,0.3,1.9,0.3,2.3c-0.1,0.4-0.4,1.2-0.8,1.2
		c-0.3,0-0.6-0.3-0.9-0.2s-2.2,1.2-2.8,1.2c-0.6,0-1.5-0.2-1.6,0c-0.1,0.2-0.1,2.2,0.1,2.5s0.7,1.5,0.7,1.8c0,0.3-0.1,1.4-0.2,1.3
		s-0.9-0.9-1-0.7c-0.1,0.2-0.1,0.8-0.2,0.9s-1.1-0.1-1.2,0.1c-0.1,0.2-0.2,0.2,0,0.5s1.2,1.5,1.1,2s-0.1,1.4-0.2,1.4s-1-0.9-1.2-1
		c-0.2,0-0.3,0-0.3,0.2C531.8,419.1,532,419.9,531.8,420z"/>
	
		<linearGradient id="SVGID_00000026134554510021456750000011306404650466569096_" gradientUnits="userSpaceOnUse" x1="-19.221" y1="174.2816" x2="992.2628" y2="178.9267" gradientTransform="matrix(1 0 0 -1 0 593.5484)">
		<stop  offset="0" style="stop-color:#0871B8"/>
		<stop  offset="1" style="stop-color:#66B32E"/>
	</linearGradient>
	<path style="fill:url(#SVGID_00000026134554510021456750000011306404650466569096_);" d="M528.1,424c-4.1,0-46.6-0.2-46.6-7.2
		s42.6-7.2,46.6-7.2s46.6,0.2,46.6,7.2C574.7,423.8,532.1,424,528.1,424z M491.6,416.8c2.2,1.8,15.8,4.2,36.5,4.2
		c20.7,0,34.2-2.4,36.5-4.2c-2.2-1.8-15.8-4.2-36.5-4.2C507.3,412.5,493.8,414.9,491.6,416.8z"/>
	
		<linearGradient id="SVGID_00000001637780172440599930000004509427338568282026_" gradientUnits="userSpaceOnUse" x1="-19.2102" y1="171.9267" x2="992.2736" y2="176.5717" gradientTransform="matrix(1 0 0 -1 0 593.5484)">
		<stop  offset="0" style="stop-color:#0871B8"/>
		<stop  offset="1" style="stop-color:#66B32E"/>
	</linearGradient>
	<path style="fill:url(#SVGID_00000001637780172440599930000004509427338568282026_);" d="M528.1,439.4c-42,0-130.8-4.2-130.8-20.3
		s88.8-20.3,130.8-20.3s130.8,4.2,130.8,20.3C658.8,435.2,570.1,439.4,528.1,439.4z M528.1,403.7c-76.5,0-116.6,10-116.6,15.4
		s40,15.4,116.6,15.4s116.6-10,116.6-15.4C644.6,413.7,604.6,403.7,528.1,403.7z"/>
	
		<linearGradient id="SVGID_00000180332592232194629360000005598424137421155484_" gradientUnits="userSpaceOnUse" x1="-19.1963" y1="168.8966" x2="992.2875" y2="173.5418" gradientTransform="matrix(1 0 0 -1 0 593.5484)">
		<stop  offset="0" style="stop-color:#0871B8"/>
		<stop  offset="1" style="stop-color:#66B32E"/>
	</linearGradient>
	<path style="fill:url(#SVGID_00000180332592232194629360000005598424137421155484_);" d="M528.1,455.3
		c-82.2,0-216.2-8.8-216.2-33.2c0-24.3,134-33.2,216.2-33.2s216.2,8.8,216.2,33.2S610.3,455.3,528.1,455.3z M528.1,394.8
		c-123.1,0-198.7,15.9-198.7,27.3c0,11.4,75.6,27.3,198.7,27.3s198.7-15.9,198.7-27.3C726.8,410.7,651.2,394.8,528.1,394.8z"/>
	<g>
		
			<linearGradient id="SVGID_00000062884750888874421050000014633764113449762959_" gradientUnits="userSpaceOnUse" x1="-19.7473" y1="288.8749" x2="991.7366" y2="293.52" gradientTransform="matrix(1 0 0 -1 0 593.5484)">
			<stop  offset="0" style="stop-color:#0871B8"/>
			<stop  offset="1" style="stop-color:#66B32E"/>
		</linearGradient>
		<path style="fill:url(#SVGID_00000062884750888874421050000014633764113449762959_);" d="M100.6,293c29.5,6.7,37,24.2,37,40.7
			c0,25.6-19.3,44.6-58.2,44.6c-40.9,0-59.2-20.5-59.2-35.8c0-7.9,5.7-13.4,13.6-13.4c17.5,0,13,25.6,45.6,25.6
			c16.7,0,26-9.2,26-18.7c0-5.7-2.8-12-13.8-14.8l-36.4-9.2c-29.3-7.5-34.6-23.6-34.6-38.7c0-31.5,29.1-43.3,56.4-43.3
			c25.2,0,54.9,14.2,54.9,33c0,8.1-6.9,12.8-14.7,12.8c-14.9,0-12.2-21-42.3-21c-14.9,0-23.2,6.9-23.2,16.7s11.8,13,22,15.3
			L100.6,293z"/>
		
			<linearGradient id="SVGID_00000142177476246251074110000010158025327307832712_" gradientUnits="userSpaceOnUse" x1="-19.745" y1="288.3828" x2="991.7387" y2="293.028" gradientTransform="matrix(1 0 0 -1 0 593.5484)">
			<stop  offset="0" style="stop-color:#0871B8"/>
			<stop  offset="1" style="stop-color:#66B32E"/>
		</linearGradient>
		<path style="fill:url(#SVGID_00000142177476246251074110000010158025327307832712_);" d="M190.3,319.8l-39.5-65.7
			c-1.6-2.6-2.8-5.5-2.8-8.5c0-11,10-14.8,16.3-14.8c7.7,0,11.2,3.1,14.6,9.4L207,292l27.9-51.7c3.7-7.1,7.3-9.4,14-9.4
			c5.9,0,15.9,3.7,15.9,14.8c0,3-1.2,5.9-2.8,8.5l-39.5,65.7v41.7c0,9.6-6.3,16.1-16.1,16.1s-16.1-6.5-16.1-16.1L190.3,319.8
			L190.3,319.8z"/>
		
			<linearGradient id="SVGID_00000071540377127976047060000017588074966665886339_" gradientUnits="userSpaceOnUse" x1="-19.7415" y1="287.6018" x2="991.7424" y2="292.247" gradientTransform="matrix(1 0 0 -1 0 593.5484)">
			<stop  offset="0" style="stop-color:#0871B8"/>
			<stop  offset="1" style="stop-color:#66B32E"/>
		</linearGradient>
		<path style="fill:url(#SVGID_00000071540377127976047060000017588074966665886339_);" d="M281,246.8c0-13,8.9-15.9,17.5-15.9h9.4
			c10,0,14.8,3.9,18.1,14.8l28.1,90.8h0.4l27.7-90.8c3.3-10.8,8.1-14.8,18.1-14.8h9c8.6,0,17.5,3,17.5,15.9v115
			c0,8.1-3.9,15.7-14.4,15.7s-14.4-7.7-14.4-15.7v-87.7h-0.4l-30.1,94c-2.2,6.7-7.1,9.4-13.8,9.4c-6.7,0-11.6-2.8-13.8-9.4l-30.1-94
			h-0.4v87.7c0,8.1-3.9,15.7-14.4,15.7s-14.4-7.7-14.4-15.7L281,246.8L281,246.8z"/>
		
			<linearGradient id="SVGID_00000036963575491286425270000015934635623587569828_" gradientUnits="userSpaceOnUse" x1="-19.7519" y1="289.8842" x2="991.7318" y2="294.5294" gradientTransform="matrix(1 0 0 -1 0 593.5484)">
			<stop  offset="0" style="stop-color:#0871B8"/>
			<stop  offset="1" style="stop-color:#66B32E"/>
		</linearGradient>
		<path style="fill:url(#SVGID_00000036963575491286425270000015934635623587569828_);" d="M671.3,289.4c29.5,6.7,37,24.2,37,40.7
			c0,25.6-19.3,44.6-58.2,44.6c-40.9,0-59.2-20.5-59.2-35.8c0-7.9,5.7-13.4,13.6-13.4c17.5,0,13,25.6,45.6,25.6
			c16.7,0,26-9.2,26-18.7c0-5.7-2.8-12-13.8-14.8l-36.4-9.2c-29.3-7.5-34.6-23.6-34.6-38.7c0-31.5,29.1-43.3,56.4-43.3
			c25.2,0,54.9,14.2,54.9,33c0,8.1-6.9,12.8-14.8,12.8c-14.9,0-12.2-21-42.3-21c-14.9,0-23.2,6.9-23.2,16.7s11.8,13,22,15.3
			L671.3,289.4z"/>
		
			<linearGradient id="SVGID_00000064323757114024694940000009822923090712045743_" gradientUnits="userSpaceOnUse" x1="-19.7489" y1="289.2405" x2="991.7349" y2="293.8857" gradientTransform="matrix(1 0 0 -1 0 593.5484)">
			<stop  offset="0" style="stop-color:#0871B8"/>
			<stop  offset="1" style="stop-color:#66B32E"/>
		</linearGradient>
		<path style="fill:url(#SVGID_00000064323757114024694940000009822923090712045743_);" d="M732.6,248.7c0-14.4,7.5-18.9,18.9-18.9
			h75.7c9.4,0,16.3,2.8,16.3,13s-6.9,13-16.3,13h-62.3v30.7h54.7c8.5,0,15.1,2.4,15.1,12.4s-6.7,12.4-15.1,12.4h-54.7v34.2h63.9
			c9.4,0,16.3,2.8,16.3,13s-6.9,13-16.3,13h-77.3c-11.4,0-18.9-4.5-18.9-18.9V248.7z"/>
		
			<linearGradient id="SVGID_00000013181308358359154040000001333738441029663365_" gradientUnits="userSpaceOnUse" x1="-19.7461" y1="288.6219" x2="991.7377" y2="293.2671" gradientTransform="matrix(1 0 0 -1 0 593.5484)">
			<stop  offset="0" style="stop-color:#0871B8"/>
			<stop  offset="1" style="stop-color:#66B32E"/>
		</linearGradient>
		<path style="fill:url(#SVGID_00000013181308358359154040000001333738441029663365_);" d="M867.3,248.7c0-14.4,7.5-18.9,18.9-18.9
			h75.7c9.4,0,16.3,2.8,16.3,13s-6.9,13-16.3,13h-62.3v30.7h54.7c8.5,0,15.1,2.4,15.1,12.4s-6.7,12.4-15.1,12.4h-54.7v34.2h63.9
			c9.4,0,16.3,2.8,16.3,13s-6.9,13-16.3,13h-77.3c-11.4,0-18.9-4.5-18.9-18.9L867.3,248.7L867.3,248.7z"/>
	</g>
</g>
</svg>
